


<svg version="1.1" id="레이어_1" xmlns="http://www.w3.org/2000/svg" xmlns:xlink="http://www.w3.org/1999/xlink" x="0px" y="0px" width="1000px" height="291.386px" viewBox="0 0 1000 291.386" enable-background="new 0 0 1000 291.386" xml:space="preserve">
<g>
	<g>
		<defs>
			<path id="SVGID_1_" d="M0,138.917h7.176c0.035-24.052,8.403-45.926,23.271-61.327L20.029,66.107
				C7.263,87.919,0,113.203,0,138.917"></path>
		</defs>
		<clipPath id="SVGID_2_">
			<use xlink:href="#SVGID_1_" overflow="visible"></use>
		</clipPath>
		
			<linearGradient id="SVGID_3_" gradientUnits="userSpaceOnUse" x1="87.8774" y1="441.2729" x2="89.7305" y2="441.2729" gradientTransform="matrix(-22.9696 22.9696 22.9696 22.9696 -8081.9004 -12072.1055)">
			<stop offset="0" style="stop-color:#FCB811"></stop>
			<stop offset="1" style="stop-color:#C3BE2F"></stop>
		</linearGradient>
		<polygon clip-path="url(#SVGID_2_)" fill="url(#SVGID_3_)" points="66.852,102.513 15.224,154.142 -36.404,102.513 15.224,50.884 
					"></polygon>
	</g>
	<g>
		<defs>
			<path id="SVGID_4_" d="M0,138.917c0,26.145,4.667,50.457,13.888,71.65l14.697-20.158c-13.041-12.348-21.409-29.057-21.409-51.376
				v-0.116H0z"></path>
		</defs>
		<clipPath id="SVGID_5_">
			<use xlink:href="#SVGID_4_" overflow="visible"></use>
		</clipPath>
		
			<linearGradient id="SVGID_6_" gradientUnits="userSpaceOnUse" x1="78.4849" y1="434.3931" x2="80.3374" y2="434.3931" gradientTransform="matrix(19.6905 19.6909 19.6909 -19.6905 -10106.2559 7161.208)">
			<stop offset="0" style="stop-color:#C3BE2F"></stop>
			<stop offset="1" style="stop-color:#80C241"></stop>
		</linearGradient>
		<polygon clip-path="url(#SVGID_5_)" fill="url(#SVGID_6_)" points="14.293,124.625 64.41,174.746 14.292,224.861 -35.825,174.742 
					"></polygon>
	</g>
	<g>
		<defs>
			<path id="SVGID_7_" d="M243.74,134.135c18.467,0.269,29.823,14.532,29.423,32.718h7.185c0-17.938-8.424-34.273-23.27-46.486
				L243.74,134.135z"></path>
		</defs>
		<clipPath id="SVGID_8_">
			<use xlink:href="#SVGID_7_" overflow="visible"></use>
		</clipPath>
		
			<linearGradient id="SVGID_9_" gradientUnits="userSpaceOnUse" x1="81.2251" y1="436.4761" x2="83.0778" y2="436.4761" gradientTransform="matrix(16.7429 16.7429 16.7429 -16.7429 -8419.7715 6077.4854)">
			<stop offset="0" style="stop-color:#6CCEF5"></stop>
			<stop offset="1" style="stop-color:#00B9C5"></stop>
		</linearGradient>
		<polygon clip-path="url(#SVGID_8_)" fill="url(#SVGID_9_)" points="262.045,102.063 303.59,143.609 262.045,185.156 
			220.498,143.609 		"></polygon>
	</g>
	<g>
		<defs>
			<path id="SVGID_10_" d="M273.163,166.853c-0.347,14.967-8.353,27.537-26.089,36.873l18.727,25.791
				c9.143-16.883,14.547-37.59,14.547-62.664H273.163z"></path>
		</defs>
		<clipPath id="SVGID_11_">
			<use xlink:href="#SVGID_10_" overflow="visible"></use>
		</clipPath>
		
			<linearGradient id="SVGID_12_" gradientUnits="userSpaceOnUse" x1="88.2549" y1="444.9722" x2="90.1078" y2="444.9722" gradientTransform="matrix(-16.9201 16.9198 16.9198 16.9201 -5751.4868 -8844.3848)">
			<stop offset="0" style="stop-color:#00B9C5"></stop>
			<stop offset="1" style="stop-color:#00A89B"></stop>
		</linearGradient>
		<polygon clip-path="url(#SVGID_11_)" fill="url(#SVGID_12_)" points="311.681,198.185 263.71,246.156 215.741,198.185 
			263.711,150.214 		"></polygon>
	</g>
	<g>
		<defs>
			<path id="SVGID_13_" d="M65.502,148.898c-12.003,0-21.179-13.179-21.179-25.953c0-1.326,0.089-2.614,0.225-3.86l-6.625-1.13
				c-0.506,2.76-0.792,5.624-0.792,8.583c0,42.874,31.953,70.247,72.296,70.247c76.68,0,99.437-62.666,133.781-62.666
				c0.177,0,0.355,0.017,0.532,0.017l13.338-13.769c-16.557-13.63-41.149-22.175-70.972-22.175
				C125.396,98.192,93.063,148.898,65.502,148.898"></path>
		</defs>
		<clipPath id="SVGID_14_">
			<use xlink:href="#SVGID_13_" overflow="visible"></use>
		</clipPath>
		
			<linearGradient id="SVGID_15_" gradientUnits="userSpaceOnUse" x1="78.9971" y1="442.4116" x2="80.8502" y2="442.4116" gradientTransform="matrix(102.9063 0 0 -102.9063 -8076.6875 45674.3008)">
			<stop offset="0" style="stop-color:#0071BB"></stop>
			<stop offset="1" style="stop-color:#6CCEF5"></stop>
		</linearGradient>
		<rect x="37.131" y="98.192" clip-path="url(#SVGID_14_)" fill="url(#SVGID_15_)" width="219.947" height="98.593"></rect>
	</g>
	<g>
		<defs>
			<path id="SVGID_16_" d="M20.029,66.107L30.446,77.59C43.896,63.661,62.69,55.08,85.462,55.08
				c44.313,0,75.08,33.524,114.625,33.524c47.423,0,73.675-23.1,80.261-68.244l-7.185-1.193
				C271.16,31.123,263.364,45.5,249.385,45.5c-13.175,0-27.149-11.579-47.503-22.746C181.503,11.174,158.142,0,128.985,0
				C82.095,0,42.517,27.632,20.029,66.107"></path>
		</defs>
		<clipPath id="SVGID_17_">
			<use xlink:href="#SVGID_16_" overflow="visible"></use>
		</clipPath>
		
			<linearGradient id="SVGID_18_" gradientUnits="userSpaceOnUse" x1="79.4268" y1="443.0923" x2="81.2793" y2="443.0923" gradientTransform="matrix(140.5117 0 0 -140.5117 -11140.375 62303.8945)">
			<stop offset="0" style="stop-color:#FCB811"></stop>
			<stop offset="0.598" style="stop-color:#F5831B"></stop>
			<stop offset="1" style="stop-color:#F16421"></stop>
		</linearGradient>
		<rect x="20.029" y="0" clip-path="url(#SVGID_17_)" fill="url(#SVGID_18_)" width="260.318" height="88.604"></rect>
	</g>
	<g>
		<defs>
			<path id="SVGID_19_" d="M13.888,210.568c21.149,48.654,66.268,80.818,133.873,80.818c44.686,0,94.127-17.695,118.04-61.869
				l-18.727-25.791c-22.03,11.588-59.096,18.203-115.285,18.203c-34.324,0-77.727-7.432-103.204-31.52L13.888,210.568z"></path>
		</defs>
		<clipPath id="SVGID_20_">
			<use xlink:href="#SVGID_19_" overflow="visible"></use>
		</clipPath>
		
			<linearGradient id="SVGID_21_" gradientUnits="userSpaceOnUse" x1="79.1587" y1="442.2085" x2="81.0117" y2="442.2085" gradientTransform="matrix(117.9332 0 0 -117.9332 -9306.8125 52392.0039)">
			<stop offset="0" style="stop-color:#80C241"></stop>
			<stop offset="1" style="stop-color:#00A89B"></stop>
		</linearGradient>
		<rect x="13.888" y="190.41" clip-path="url(#SVGID_20_)" fill="url(#SVGID_21_)" width="251.913" height="100.977"></rect>
	</g>
	<path fill="#0068B7" d="M398.159,218.029c-44.388,0-68.919-29.176-68.919-72.337c0-43.387,26.545-72.784,69.736-72.784
		c17.217,0,31.604,4.05,42.769,10.345l-4.667,30.196c-10.558-6.687-22.911-11.928-37.316-11.928c-24.125,0-35.85,17.813-35.85,43.95
		c0,26.349,12.148,44.808,36.26,44.808c7.718,0,13.192-1.426,18.853-4.471v-24.93h-24.317l-4.063-25.744h58.575v68.1
		C434.622,212.783,417.407,218.029,398.159,218.029"></path>
	<path fill="#0068B7" d="M515.723,217.015c-18.874,0-34.667-4.039-48.858-10.529l5.065-29.592
		c14.386,7.711,30.412,12.982,44.397,12.982c9.912,0,16.823-4.273,16.823-12.572c0-7.914-4.056-11.563-23.731-19.059
		c-27.951-10.746-40.122-19.859-40.122-42.979c0-26.948,21.071-41.346,47.818-41.346c18.281,0,30.031,3.455,42.17,9.331
		l-5.263,29.184c-12.538-7.304-25.738-11.335-36.485-11.335c-10.539,0-15.615,4.443-15.615,10.933
		c0,7.094,3.848,10.552,21.287,17.235c30.444,11.137,42.582,21.674,42.582,43.975C565.791,203.652,543.492,217.015,515.723,217.015"></path>
	<polygon fill="#6C6E70" points="717.832,76.494 702.826,76.494 702.826,145.462 717.832,145.462 717.832,116.217 735.815,116.217 
		735.815,102.722 717.832,102.722 	"></polygon>
	<path fill="#6C6E70" d="M682.295,79.487H611.4v13.506h52.309c-1.069,4.876-2.741,9.355-5.071,13.476H611.4v12.597h36.767
		c-10.186,8.643-25.032,14.425-44.744,17.092l5.879,11.384C645.262,142.746,679.31,123.259,682.295,79.487"></path>
	<path fill="#6C6E70" d="M639.874,188.466h77.958v-37.023h-93.683v13.051h78.675v11.699h-77.941v30.725c0,4.047,3.45,7.5,7.492,7.5
		h86.191v-13.049h-78.692V188.466z"></path>
	<rect x="845.171" y="76.492" fill="#6C6E70" width="14.55" height="76.447"></rect>
	<polygon fill="#6C6E70" points="834.239,152.941 834.239,76.493 819.695,76.493 819.695,106.012 801.256,106.012 801.256,119.513 
		819.695,119.513 819.695,152.941 	"></polygon>
	<path fill="#6C6E70" d="M806.202,133.897h-42.414v-14.832h31.48v-12.596h-31.48V92.538h37.468V79.486h-52.459v59.975
		c0,4.023,3.454,7.488,7.496,7.488h49.909V133.897z"></path>
	<polygon fill="#6C6E70" points="763.788,172.425 844.728,172.425 844.728,214.417 859.719,214.417 859.719,158.939 
		763.788,158.939 	"></polygon>
	<path fill="#6C6E70" d="M930.737,77.981v17.413c0,29.975-23.088,47.654-49.622,52.451l6.595,11.85
		c19.795-3.459,38.808-14.988,50.811-32.979c12.019,17.991,31.031,29.521,50.834,32.979l6.585-11.85
		c-26.526-4.797-49.621-22.477-49.621-52.451V77.981H930.737z"></path>
	<rect x="877.063" y="187.406" fill="#6C6E70" width="122.938" height="13.512"></rect>
</g>
</svg>
