
<svg xmlns="http://www.w3.org/2000/svg" width="94.089996mm" height="27.190001mm" viewBox="0 0 94.089997 27.190001" version="1.1" id="svg2265">
  <defs id="defs2259">
    <clipPath clipPathUnits="userSpaceOnUse" id="clipPath1704">
      <path d="m 262.707,648.175 c 0,-21.605 20.794,-38.513 47.34,-38.513 v 0 c 26.533,0 47.327,16.908 47.327,38.513 v 0 c 0,21.592 -20.794,38.515 -47.327,38.515 v 0 c -26.546,0 -47.34,-16.923 -47.34,-38.515" id="path1702"></path>
    </clipPath>
    <linearGradient x1="0" y1="0" x2="1" y2="0" gradientUnits="userSpaceOnUse" gradientTransform="matrix(50.960358,-57.926361,-57.926361,-50.960358,285.29297,676.30371)" spreadMethod="pad" id="linearGradient1714">
      <stop style="stop-opacity:1;stop-color:#3a80ba" offset="0" id="stop1710"></stop>
      <stop style="stop-opacity:1;stop-color:#0d396b" offset="1" id="stop1712"></stop>
    </linearGradient>
    <clipPath clipPathUnits="userSpaceOnUse" id="clipPath1724">
      <path d="m 263.947,648.175 c 0,-21.38 20.96,-37.265 46.1,-37.265 v 0 c 25.132,0 46.097,15.885 46.097,37.265 v 0 c 0,21.384 -20.965,37.287 -46.097,37.287 v 0 c -25.14,0 -46.1,-15.903 -46.1,-37.287" id="path1722"></path>
    </clipPath>
    <linearGradient x1="0" y1="0" x2="1" y2="0" gradientUnits="userSpaceOnUse" gradientTransform="matrix(50.958404,-57.924149,-57.924149,-50.958404,285.26514,676.34619)" spreadMethod="pad" id="linearGradient1740">
      <stop style="stop-opacity:1;stop-color:#d0e2f3" offset="0" id="stop1730"></stop>
      <stop style="stop-opacity:1;stop-color:#74a9ce" offset="0.259033" id="stop1732"></stop>
      <stop style="stop-opacity:1;stop-color:#3180b4" offset="0.512054" id="stop1734"></stop>
      <stop style="stop-opacity:1;stop-color:#0e60a7" offset="0.759033" id="stop1736"></stop>
      <stop style="stop-opacity:1;stop-color:#00437a" offset="1" id="stop1738"></stop>
    </linearGradient>
    <clipPath clipPathUnits="userSpaceOnUse" id="clipPath1750">
      <path d="m 267.068,648.175 c 0,-19.16 18.874,-34.164 42.979,-34.164 v 0 c 24.107,0 42.975,15.004 42.975,34.164 v 0 c 0,19.152 -18.868,34.165 -42.975,34.165 v 0 c -24.105,0 -42.979,-15.013 -42.979,-34.165" id="path1748"></path>
    </clipPath>
    <radialGradient fx="0" fy="0" cx="0" cy="0" r="1" gradientUnits="userSpaceOnUse" gradientTransform="matrix(63.564728,0,0,-63.485962,285.0127,673.41748)" spreadMethod="pad" id="radialGradient1764">
      <stop style="stop-opacity:1;stop-color:#75a7d4" offset="0" id="stop1756"></stop>
      <stop style="stop-opacity:1;stop-color:#3a80ba" offset="0.524094" id="stop1758"></stop>
      <stop style="stop-opacity:1;stop-color:#0e60a7" offset="0.993973" id="stop1760"></stop>
      <stop style="stop-opacity:1;stop-color:#0e60a7" offset="1" id="stop1762"></stop>
    </radialGradient>
    <clipPath clipPathUnits="userSpaceOnUse" id="clipPath1774">
      <path d="m 335.335,674.622 h -0.839 c -0.01,-0.029 -0.037,-0.066 -0.037,-0.094 v 0 c -0.147,-0.283 -0.305,-0.514 -0.464,-0.748 v 0 c -5.044,-7.873 -13.899,-13.105 -23.948,-13.105 v 0 c -10.037,0 -18.844,5.192 -23.897,13.029 v 0 c -0.208,0.262 -0.387,0.571 -0.594,0.918 v 0 h -1.02 c -1.146,-8.663 -1.725,-17.477 -1.725,-26.447 v 0 c 0,-8.966 0.579,-17.801 1.737,-26.445 v 0 h 1.026 c 0.228,0.414 0.465,0.797 0.708,1.129 v 0 c 5.09,7.713 13.827,12.811 23.765,12.811 v 0 c 9.827,0 18.486,-4.99 23.564,-12.552 v 0 c 0.303,-0.386 0.596,-0.824 0.86,-1.35 v 0 c 0.015,-0.022 0.015,-0.026 0.025,-0.038 v 0 h 1.064 c 1.137,8.644 1.736,17.479 1.736,26.445 v 0 c 0,8.97 -0.599,17.799 -1.736,26.457 v 0 z" id="path1772"></path>
    </clipPath>
    <linearGradient x1="0" y1="0" x2="1" y2="0" gradientUnits="userSpaceOnUse" gradientTransform="matrix(53.392532,0,0,-53.392517,285.19873,648.18018)" spreadMethod="pad" id="linearGradient1788">
      <stop style="stop-opacity:1;stop-color:#d1de95" offset="0" id="stop1780"></stop>
      <stop style="stop-opacity:1;stop-color:#8dc557" offset="0.399994" id="stop1782"></stop>
      <stop style="stop-opacity:1;stop-color:#46b035" offset="0.949997" id="stop1784"></stop>
      <stop style="stop-opacity:1;stop-color:#8dc557" offset="1" id="stop1786"></stop>
    </linearGradient>
    <clipPath clipPathUnits="userSpaceOnUse" id="clipPath1798">
      <path d="m 284.752,621.73 h 0.822 c 0.228,0.414 0.465,0.797 0.708,1.129 v 0 c 5.09,7.713 13.827,12.811 23.765,12.811 v 0 c 9.827,0 18.486,-4.99 23.564,-12.552 v 0 c 0.303,-0.386 0.596,-0.824 0.86,-1.35 v 0 c 0.015,-0.022 0.015,-0.026 0.025,-0.038 v 0 h 0.839 c -4.1,10.957 -13.873,18.68 -25.288,18.68 v 0 c -11.415,0 -21.197,-7.723 -25.295,-18.68" id="path1796"></path>
    </clipPath>
    <linearGradient x1="0" y1="0" x2="1" y2="0" gradientUnits="userSpaceOnUse" gradientTransform="matrix(-53.12178,0,0,53.12178,339.14404,631.06982)" spreadMethod="pad" id="linearGradient1808">
      <stop style="stop-opacity:1;stop-color:#8dc557" offset="0" id="stop1804"></stop>
      <stop style="stop-opacity:1;stop-color:#46b035" offset="1" id="stop1806"></stop>
    </linearGradient>
    <clipPath clipPathUnits="userSpaceOnUse" id="clipPath1818">
      <path d="m 334.528,674.622 c -0.241,-0.424 -0.48,-0.811 -0.721,-1.135 v 0 c -5.084,-7.713 -13.823,-12.812 -23.76,-12.812 v 0 c -9.823,0 -18.484,4.99 -23.573,12.541 v 0 c -0.304,0.386 -0.59,0.838 -0.859,1.365 v 0 c -0.013,0.012 -0.027,0.03 -0.041,0.041 v 0 h -0.822 c 4.098,-10.951 13.88,-18.683 25.295,-18.683 v 0 c 11.415,0 21.188,7.732 25.288,18.683 v 0 z" id="path1816"></path>
    </clipPath>
    <linearGradient x1="0" y1="0" x2="1" y2="0" gradientUnits="userSpaceOnUse" gradientTransform="matrix(-53.12178,0,0,53.12178,339.14404,665.28027)" spreadMethod="pad" id="linearGradient1828">
      <stop style="stop-opacity:1;stop-color:#8dc557" offset="0" id="stop1824"></stop>
      <stop style="stop-opacity:1;stop-color:#46b035" offset="1" id="stop1826"></stop>
    </linearGradient>
    <clipPath clipPathUnits="userSpaceOnUse" id="clipPath1838">
      <path d="m 310.047,656.011 c -11.116,0 -21.01,7.314 -25.249,18.621 v 0 l -0.125,-0.039 c 4.253,-11.369 14.212,-18.718 25.374,-18.718 v 0 c 11.162,0 21.113,7.349 25.357,18.718 v 0 l -0.128,0.039 c -4.235,-11.307 -14.127,-18.621 -25.229,-18.621" id="path1836"></path>
    </clipPath>
    <linearGradient x1="0" y1="0" x2="1" y2="0" gradientUnits="userSpaceOnUse" gradientTransform="matrix(52.28891,0,0,-52.288895,285.51074,665.25342)" spreadMethod="pad" id="linearGradient1850">
      <stop style="stop-opacity:1;stop-color:#ffffff" offset="0" id="stop1844"></stop>
      <stop style="stop-opacity:1;stop-color:#d1de95" offset="0.5" id="stop1846"></stop>
      <stop style="stop-opacity:1;stop-color:#96c156" offset="1" id="stop1848"></stop>
    </linearGradient>
    <clipPath clipPathUnits="userSpaceOnUse" id="clipPath1860">
      <path d="m 284.673,621.73 0.125,-0.056 c 4.239,11.318 14.133,18.635 25.249,18.635 v 0 c 11.102,0 20.994,-7.317 25.229,-18.635 v 0 l 0.128,0.056 c -4.244,11.381 -14.195,18.706 -25.357,18.706 v 0 c -11.162,0 -21.121,-7.325 -25.374,-18.706" id="path1858"></path>
    </clipPath>
    <linearGradient x1="0" y1="0" x2="1" y2="0" gradientUnits="userSpaceOnUse" gradientTransform="matrix(52.28891,0,0,52.28891,285.51074,631.05518)" spreadMethod="pad" id="linearGradient1872">
      <stop style="stop-opacity:1;stop-color:#ffffff" offset="0" id="stop1866"></stop>
      <stop style="stop-opacity:1;stop-color:#d1de95" offset="0.5" id="stop1868"></stop>
      <stop style="stop-opacity:1;stop-color:#96c156" offset="1" id="stop1870"></stop>
    </linearGradient>
  </defs>
  
  
  <g id="layer1">
    <path d="m 54.837191,21.58301 2.12407,-3.14713 h -2.46027 l -1.88947,2.76931 h -0.0194 l 1.21956,-6.15104 h -2.36115 l -2.01824,10.34203 h 2.35762 l 0.71402,-3.68758 h 0.0208 l 1.17299,3.70487 h 2.24331 z" style="fill:#0066b2;fill-opacity:1;fill-rule:nonzero;stroke:none;stroke-width:0.352778" id="path1644"></path>
    <path d="m 20.966571,11.9054 h -2.2987 l 0.09772,-0.8315 h -0.01552 c -0.550333,0.78881 -1.356077,0.9966 -1.913819,0.9966 -0.988483,0 -1.588206,-0.54539 -1.316214,-2.00307 l 1.013883,-5.1219801 h 2.360084 l -0.966964,4.86516 c -0.07761,0.4081601 0.207786,0.6409901 0.490008,0.6409901 0.261408,0 0.500592,-0.1778 0.581378,-0.6163001 l 0.971904,-4.88985 h 2.36149 z" style="fill:#0066b2;fill-opacity:1;fill-rule:nonzero;stroke:none;stroke-width:0.352778" id="path1648"></path>
    <path d="m 23.997391,4.9452699 h 2.30364 l -0.10478,0.83397 h 0.11078 c 0.55209,-0.78987 1.26365,-0.99907 1.82103,-0.99907 0.98849,0 1.59491,0.54434 1.31728,2.00554 l -1.01248,5.1195101 h -2.36078 l 0.96978,-4.8697401 c 0.0737,-0.40287 -0.0272,-0.63289 -0.30974,-0.63289 -0.26211,0 -0.68227,0.17569 -0.76729,0.61454 l -0.97331,4.8880901 h -2.35903 z" style="fill:#0066b2;fill-opacity:1;fill-rule:nonzero;stroke:none;stroke-width:0.352778" id="path1652"></path>
    <path d="m 33.438321,11.9054 h 2.22003 l 2.02106,-10.3416798 h -2.35549 l -0.75107,3.8823197 c -0.29704,-0.48789 -0.87771,-0.647 -1.42063,-0.66569 -1.12854,-0.0427 -2.06058,0.68968 -2.59362,2.85538 -0.49213,1.99849 -0.5073,4.1994701 1.1116,4.4058401 0.72778,0.0917 1.39276,-0.0797 1.84644,-0.76764 z m 0.71085,-4.2072301 c -0.11078,0.56903 -0.39406,2.13713 -0.5775,2.5417701 -0.0804,0.1718 -0.15981,0.39052 -0.63712,0.27587 -0.59972,-0.14993 -0.17145,-1.9579201 0.008,-2.7682501 0.19544,-0.86713 0.47449,-1.3716 0.8248,-1.41111 0.23848,-0.024 0.49495,0.0815 0.49495,0.56691 0,0.22896 -0.0229,0.3108 -0.11289,0.79481" style="fill:#0066b2;fill-opacity:1;fill-rule:nonzero;stroke:none;stroke-width:0.352778" id="path1656"></path>
    <path d="m 41.119531,7.0171699 h -0.27869 c -1.86761,-0.0102 -2.74638,0.64664 -3.21416,1.5621 -0.1965,0.3937 -0.33338,0.86219 -0.39688,1.5924401 -0.10548,1.1056 0.39441,1.86972 1.49684,1.89865 0.53022,0.0152 1.08232,-0.18733 1.51588,-0.68757 l -0.0339,0.52247 h 2.15688 l 0.99448,-5.0355501 c 0.23918,-1.26859 -0.38382,-2.09091 -2.26342,-2.09091 -1.23896,0 -2.44722,0.28963 -2.91253,1.79951 h 2.08738 c 0.0769,-0.381 0.28857,-0.5722 0.58032,-0.5722 0.33197,0 0.42757,0.1658 0.37359,0.44203 z m -0.45261,2.28494 c -0.0836,0.45226 -0.29528,1.3557301 -0.80928,1.3557301 -0.381,0 -0.42509,-0.29528 -0.39828,-0.63183 0.0106,-0.2522301 0.0236,-0.2921001 0.16192,-0.8399601 0.12136,-0.50765 0.50765,-1.13242 1.0407,-1.11478 l 0.25999,-0.0247 z" style="fill:#0066b2;fill-opacity:1;fill-rule:nonzero;stroke:none;stroke-width:0.352778" id="path1660"></path>
    <path d="m 45.897161,1.5635802 h 2.36114 l -0.4385,2.2157997 h -2.3622 z m -0.6537,3.3817297 h 2.35232 l -1.3596,6.9599501 h -2.35938 z" style="fill:#0066b2;fill-opacity:1;fill-rule:nonzero;stroke:none;stroke-width:0.352778" id="path1664"></path>
    <path d="m 43.339521,18.43592 h 2.30082 l -0.10266,0.8322 h 0.11112 c 0.54681,-0.79198 1.26471,-0.99589 1.81928,-0.99589 0.98672,0 1.59667,0.54786 1.31798,2.00096 l -1.01177,5.12339 h -2.36044 l 0.9712,-4.86516 c 0.073,-0.40781 -0.0275,-0.63923 -0.3115,-0.63923 -0.26212,0 -0.68298,0.1725 -0.76624,0.61348 l -0.97225,4.89091 h -2.35691 z" style="fill:#0066b2;fill-opacity:1;fill-rule:nonzero;stroke:none;stroke-width:0.352778" id="path1668"></path>
    <path d="m 39.074341,20.50573 h -0.27799 c -1.86337,-0.004 -2.74778,0.65123 -3.21345,1.56386 -0.19791,0.39406 -0.32738,0.86219 -0.39899,1.59385 -0.10019,1.09961 0.39899,1.86726 1.49577,1.90006 0.53587,0.0134 1.08621,-0.18661 1.52365,-0.69003 l -0.0406,0.52317 h 2.16288 l 0.99554,-5.02955 c 0.23072,-1.27529 -0.39158,-2.09903 -2.27295,-2.09903 -1.23225,0 -2.44686,0.28928 -2.90583,1.7967 h 2.08175 c 0.0868,-0.37642 0.29139,-0.56198 0.58525,-0.56198 0.33056,0 0.42933,0.15946 0.37465,0.43286 z m -0.45261,2.28847 c -0.0857,0.45014 -0.29281,1.35572 -0.80928,1.35572 -0.37747,0 -0.42051,-0.29492 -0.40146,-0.63394 0.0152,-0.24765 0.0339,-0.29457 0.16228,-0.84137 0.12594,-0.50377 0.508,-1.13242 1.04034,-1.11055 l 0.26952,-0.0282 z" style="fill:#0066b2;fill-opacity:1;fill-rule:nonzero;stroke:none;stroke-width:0.352778" id="path1672"></path>
    <path d="m 21.565161,15.05422 h 2.36008 l -0.42262,2.22003 h -2.36044 z m -0.62618,3.38173 h 2.35973 l -1.36454,6.96066 h -2.36256 z" style="fill:#0066b2;fill-opacity:1;fill-rule:nonzero;stroke:none;stroke-width:0.352778" id="path1676"></path>
    <path d="m 25.662571,15.05422 h 2.35514 l -2.01718,10.34239 h -2.35726 z" style="fill:#0066b2;fill-opacity:1;fill-rule:nonzero;stroke:none;stroke-width:0.352778" id="path1680"></path>
    <path d="m 27.758391,25.39675 h 2.22532 l 0.15593,-0.63359 c 0.29492,0.62583 0.83679,0.80045 1.37442,0.80045 1.18922,0 2.44405,-0.45896 2.9785,-4.44323 0.28117,-2.09656 -0.32561,-2.91606 -1.54728,-2.91606 -0.54398,0 -1.07385,0.23883 -1.55363,0.7366 l 0.74083,-3.88656 h -2.37737 z m 2.90089,-2.75026 c 0.0921,-0.48013 0.40675,-2.07997 0.48966,-2.31633 0.11994,-0.31856 0.29316,-0.54222 0.62194,-0.50201 0.71156,0.085 0.25259,1.82245 0.0593,2.69699 -0.18803,0.83961 -0.51153,1.37266 -0.88935,1.37266 -0.26388,0 -0.35666,-0.16052 -0.40146,-0.32279 -0.0332,-0.16052 0.0342,-0.46426 0.11994,-0.92852" style="fill:#0066b2;fill-opacity:1;fill-rule:nonzero;stroke:none;stroke-width:0.352778" id="path1684"></path>
    <path d="m 16.397676,19.27549 c -0.103364,0.5969 -0.648406,3.38702 -0.782461,3.83893 -0.232128,0.75671 -0.474839,1.02446 -0.915811,1.0354 -0.04868,0 -0.09455,0 -0.1397,-0.006 -0.886531,-0.0416 -0.587375,-0.74013 -0.200731,-2.85645 h -0.0021 c 0.102658,-0.59654 0.650169,-3.38843 0.783519,-3.84033 0.235656,-0.75318 0.474839,-1.02482 0.910519,-1.03153 h 0.0042 c 1.060097,-0.0236 0.747889,0.63571 0.342547,2.85962 m -0.05786,-4.46546 v 0 c -1.876777,-0.14535 -2.896658,0.48507 -3.593041,2.11525 -0.561975,1.29858 -0.819503,3.28966 -1.079853,4.74769 -0.406047,2.31457 0.263172,3.83011 2.607381,3.93806 1.918758,0.0959 3.019777,-0.45227 3.715102,-2.08386 0.559859,-1.29822 0.818798,-3.28507 1.077384,-4.74416 0.40534,-2.31739 -0.383823,-3.92536 -2.726973,-3.97298" style="fill:#0066b2;fill-opacity:1;fill-rule:nonzero;stroke:none;stroke-width:0.352778" id="path1688"></path>
    <path d="M 9.947098,11.91369 9.246481,4.9452699 h 2.254956 l -0.03422,4.76779 1.749073,-4.76779 h 2.352675 L 10.909123,14.62196 H 8.57832 Z" style="fill:#0066b2;fill-opacity:1;fill-rule:nonzero;stroke:none;stroke-width:0.352778" id="path1692"></path>
    <path d="M 6.484408,1.5721902 5.758039,5.2534299 H 3.795183 L 4.5176719,1.5721902 H 2.035175 L 0,11.90364 H 2.485319 L 3.448403,7.0003799 H 5.4130219 L 4.4492329,11.90364 H 6.935258 l 2.032,-10.3314498 z" style="fill:#0066b2;fill-opacity:1;fill-rule:nonzero;stroke:none;stroke-width:0.352778" id="path1696"></path>
    <g id="g1698" transform="matrix(0.35277777,0,0,-0.35277777,-32.002976,242.24897)">
      <g id="g1700" clip-path="url(#clipPath1704)">
        <g id="g1706">
          <g id="g1708">
            <path d="m 262.707,648.175 c 0,-21.605 20.794,-38.513 47.34,-38.513 v 0 c 26.533,0 47.327,16.908 47.327,38.513 v 0 c 0,21.592 -20.794,38.515 -47.327,38.515 v 0 c -26.546,0 -47.34,-16.923 -47.34,-38.515" style="fill:url(#linearGradient1714);stroke:none" id="path1716"></path>
          </g>
        </g>
      </g>
    </g>
    <g id="g1718" transform="matrix(0.35277777,0,0,-0.35277777,-32.002976,242.24897)">
      <g id="g1720" clip-path="url(#clipPath1724)">
        <g id="g1726">
          <g id="g1728">
            <path d="m 263.947,648.175 c 0,-21.38 20.96,-37.265 46.1,-37.265 v 0 c 25.132,0 46.097,15.885 46.097,37.265 v 0 c 0,21.384 -20.965,37.287 -46.097,37.287 v 0 c -25.14,0 -46.1,-15.903 -46.1,-37.287" style="fill:url(#linearGradient1740);stroke:none" id="path1742"></path>
          </g>
        </g>
      </g>
    </g>
    <g id="g1744" transform="matrix(0.35277777,0,0,-0.35277777,-32.002976,242.24897)">
      <g id="g1746" clip-path="url(#clipPath1750)">
        <g id="g1752">
          <g id="g1754">
            <path d="m 267.068,648.175 c 0,-19.16 18.874,-34.164 42.979,-34.164 v 0 c 24.107,0 42.975,15.004 42.975,34.164 v 0 c 0,19.152 -18.868,34.165 -42.975,34.165 v 0 c -24.105,0 -42.979,-15.013 -42.979,-34.165" style="fill:url(#radialGradient1764);stroke:none" id="path1766"></path>
          </g>
        </g>
      </g>
    </g>
    <g id="g1768" transform="matrix(0.35277777,0,0,-0.35277777,-32.002976,242.24897)">
      <g id="g1770" clip-path="url(#clipPath1774)">
        <g id="g1776">
          <g id="g1778">
            <path d="m 335.335,674.622 h -0.839 c -0.01,-0.029 -0.037,-0.066 -0.037,-0.094 v 0 c -0.147,-0.283 -0.305,-0.514 -0.464,-0.748 v 0 c -5.044,-7.873 -13.899,-13.105 -23.948,-13.105 v 0 c -10.037,0 -18.844,5.192 -23.897,13.029 v 0 c -0.208,0.262 -0.387,0.571 -0.594,0.918 v 0 h -1.02 c -1.146,-8.663 -1.725,-17.477 -1.725,-26.447 v 0 c 0,-8.966 0.579,-17.801 1.737,-26.445 v 0 h 1.026 c 0.228,0.414 0.465,0.797 0.708,1.129 v 0 c 5.09,7.713 13.827,12.811 23.765,12.811 v 0 c 9.827,0 18.486,-4.99 23.564,-12.552 v 0 c 0.303,-0.386 0.596,-0.824 0.86,-1.35 v 0 c 0.015,-0.022 0.015,-0.026 0.025,-0.038 v 0 h 1.064 c 1.137,8.644 1.736,17.479 1.736,26.445 v 0 c 0,8.97 -0.599,17.799 -1.736,26.457 v 0 z" style="fill:url(#linearGradient1788);stroke:none" id="path1790"></path>
          </g>
        </g>
      </g>
    </g>
    <g id="g1792" transform="matrix(0.35277777,0,0,-0.35277777,-32.002976,242.24897)">
      <g id="g1794" clip-path="url(#clipPath1798)">
        <g id="g1800">
          <g id="g1802">
            <path d="m 284.752,621.73 h 0.822 c 0.228,0.414 0.465,0.797 0.708,1.129 v 0 c 5.09,7.713 13.827,12.811 23.765,12.811 v 0 c 9.827,0 18.486,-4.99 23.564,-12.552 v 0 c 0.303,-0.386 0.596,-0.824 0.86,-1.35 v 0 c 0.015,-0.022 0.015,-0.026 0.025,-0.038 v 0 h 0.839 c -4.1,10.957 -13.873,18.68 -25.288,18.68 v 0 c -11.415,0 -21.197,-7.723 -25.295,-18.68" style="fill:url(#linearGradient1808);stroke:none" id="path1810"></path>
          </g>
        </g>
      </g>
    </g>
    <g id="g1812" transform="matrix(0.35277777,0,0,-0.35277777,-32.002976,242.24897)">
      <g id="g1814" clip-path="url(#clipPath1818)">
        <g id="g1820">
          <g id="g1822">
            <path d="m 334.528,674.622 c -0.241,-0.424 -0.48,-0.811 -0.721,-1.135 v 0 c -5.084,-7.713 -13.823,-12.812 -23.76,-12.812 v 0 c -9.823,0 -18.484,4.99 -23.573,12.541 v 0 c -0.304,0.386 -0.59,0.838 -0.859,1.365 v 0 c -0.013,0.012 -0.027,0.03 -0.041,0.041 v 0 h -0.822 c 4.098,-10.951 13.88,-18.683 25.295,-18.683 v 0 c 11.415,0 21.188,7.732 25.288,18.683 v 0 z" style="fill:url(#linearGradient1828);stroke:none" id="path1830"></path>
          </g>
        </g>
      </g>
    </g>
    <g id="g1832" transform="matrix(0.35277777,0,0,-0.35277777,-32.002976,242.24897)">
      <g id="g1834" clip-path="url(#clipPath1838)">
        <g id="g1840">
          <g id="g1842">
            <path d="m 310.047,656.011 c -11.116,0 -21.01,7.314 -25.249,18.621 v 0 l -0.125,-0.039 c 4.253,-11.369 14.212,-18.718 25.374,-18.718 v 0 c 11.162,0 21.113,7.349 25.357,18.718 v 0 l -0.128,0.039 c -4.235,-11.307 -14.127,-18.621 -25.229,-18.621" style="fill:url(#linearGradient1850);stroke:none" id="path1852"></path>
          </g>
        </g>
      </g>
    </g>
    <g id="g1854" transform="matrix(0.35277777,0,0,-0.35277777,-32.002976,242.24897)">
      <g id="g1856" clip-path="url(#clipPath1860)">
        <g id="g1862">
          <g id="g1864">
            <path d="m 284.673,621.73 0.125,-0.056 c 4.239,11.318 14.133,18.635 25.249,18.635 v 0 c 11.102,0 20.994,-7.317 25.229,-18.635 v 0 l 0.128,0.056 c -4.244,11.381 -14.195,18.706 -25.357,18.706 v 0 c -11.162,0 -21.121,-7.325 -25.374,-18.706" style="fill:url(#linearGradient1872);stroke:none" id="path1874"></path>
          </g>
        </g>
      </g>
    </g>
  </g>
</svg>